# xmcd CD database file
#
# Track frame offsets:
#	150
#	9167
#	26712
#	40262
#	55166
#	76327
#	110390
#	129234
#	149150
#	166230
#	185687
#
# Disc length: 2573 seconds
#
# Revision: 5
# Processed by: cddbd v1.5.2PL0 Copyright (c) Steve Scherf et al.
# Submitted via: CDex 1.70beta3
#
DISCID=8c0a0b0b
DTITLE=水瀬伊織(CV:釘宮理恵) - THE IDOLM@STER MASTER ARTIST 2 -SECOND SEASON- 01 Iori Minase
DYEAR=2011
DGENRE=Game
TTITLE0=トーク01 ―挨拶―
TTITLE1=MEGARE! (M@STER VERSION)
TTITLE2=トーク02
TTITLE3=バレンタイン・キッス
TTITLE4=リゾラ
TTITLE5=トーク03
TTITLE6=DIAMOND
TTITLE7=トーク04 ED
TTITLE8=あ～よかった (Version Iori)
TTITLE9=DIAMOND (オリジナル・カラオケ)
TTITLE10=トーク05
EXTD=YEAR: 2011
EXTT0=
EXTT1=
EXTT2=
EXTT3=
EXTT4=
EXTT5=
EXTT6=
EXTT7=
EXTT8=
EXTT9=
EXTT10=
PLAYORDER=
